<?xml version="1.0" encoding="utf-8"?>
<!-- Generator: Adobe Illustrator 24.2.3, SVG Export Plug-In . SVG Version: 6.00 Build 0)  -->
<svg version="1.1" id="图层_1" xmlns="http://www.w3.org/2000/svg" xmlns:xlink="http://www.w3.org/1999/xlink" x="0px" y="0px"
	 width="200px" height="200px" viewBox="0 0 200 200" style="enable-background:new 0 0 200 200;" xml:space="preserve">
<style type="text/css">
	.st0{fill:#FFFFFF;}
	.st1{fill:#8C98A6;}
	.st2{fill:#F27233;}
</style>
<path class="st0" d="M162.5,25v149.6H37.6V25L162.5,25 M162.5,12.5H37.6c-6.9,0-12.5,5.6-12.5,12.5v149.6c0,6.9,5.6,12.5,12.5,12.5
	h124.9c6.9,0,12.5-5.6,12.5-12.5V25C175,18.1,169.4,12.5,162.5,12.5z"/>
<path class="st0" d="M51.1,99.7v-6.2h98.4v6.2H51.1z M51.1,118.2V112h98.4v6.2H51.1z M78.2,59.7v-6.2h71.3v6.2H78.2z M51.1,80.2
	v-6.2h98.4v6.2H51.1z"/>
<path class="st1" d="M143.2,161v-6.2h19.1v6.2H143.2z"/>
<path class="st2" d="M175,187.2H89.2v-34.4c0-6.9,5.6-12.5,12.5-12.5H175c6.9,0,12.5,5.6,12.5,12.5v21.9
	C187.5,181.6,181.9,187.2,175,187.2z"/>
<path class="st0" d="M125.1,150.6v3.9H116v24h-4.6v-24h-9.1v-3.9H125.1z M132.1,150.6l6.6,9.8l6.6-9.8h5.6l-9.4,13.5l10,14.4h-5.6
	l-7.2-10.8l-7.2,10.8h-5.6l10-14.4l-9.3-13.5H132.1z M175.1,150.6v3.9h-9.1v24h-4.6v-24h-9.1v-3.9H175.1z"/>
</svg>
